<?xml version="1.0" encoding="utf-8"?>
<svg width="800px" height="800px" viewBox="0 -1 161 161" fill="none" xmlns="http://www.w3.org/2000/svg">
  <g clip-path="url(#clip0)">
    <path d="M86.0457 38.2688C79.691 37.68 73.2871 38.5854 67.3438 40.9129C61.4 43.2404 56.0807 46.9257 51.8092 51.6755C47.5377 56.4254 44.4317 62.1087 42.7387 68.2729C41.0457 74.4376 40.8122 80.9125 42.057 87.1829C45.3127 102.636 53.3095 112.411 66.5056 117.066C70.3961 118.412 74.4881 119.076 78.6041 119.031C82.0288 119.003 85.4445 118.671 88.8117 118.039C110.577 114.138 122.561 98.8327 122.551 74.9399V74.925C122.287 67.4507 119.8 60.225 115.409 54.1764C108.493 44.9116 98.6144 39.559 86.0457 38.2688ZM112.222 84.9796C109.636 97.9339 101.48 105.46 87.2888 107.988C82.6947 108.806 76.6685 109.516 70.801 107.741C60.5827 104.648 54.449 97.4491 52.0496 85.7357C51.6742 83.6726 51.4284 81.588 51.3138 79.4944C51.2399 78.521 51.1667 77.5527 51.0676 76.587C51.0495 72.6944 51.8161 68.8382 53.3216 65.2493C54.827 61.661 57.0403 58.4138 59.8287 55.7029C65.7684 49.9704 74.1124 46.9941 83.2674 47.2835C93.1511 47.608 100.981 51.1691 106.54 57.8621C112.559 65.1111 114.418 73.9827 112.222 84.9796Z" 
          fill="#1a73e8"/>
    <path d="M112.222 84.9796C109.636 97.9339 101.48 105.46 87.2888 107.988C82.6947 108.806 76.6685 109.516 70.801 107.741C60.5827 104.648 54.449 97.4491 52.0496 85.7357C51.6742 83.6726 51.4284 81.588 51.3138 79.4944C51.2399 78.521 51.1667 77.5527 51.0676 76.587C51.0495 72.6944 51.8161 68.8382 53.3216 65.2493C54.827 61.661 57.0403 58.4138 59.8287 55.7029C65.7684 49.9704 74.1124 46.9941 83.2674 47.2835C93.1511 47.608 100.981 51.1691 106.54 57.8621C112.559 65.1111 114.418 73.9827 112.222 84.9796Z" 
          fill="white"/>
  </g>
  <defs>
    <clipPath id="clip0">
      <rect width="160" height="159" fill="white" transform="translate(0.777344)"/>
    </clipPath>
  </defs>
</svg>